<?xml version="1.0" encoding="UTF-8"?>
<svg width="22px" height="18px" viewBox="0 0 22 18" version="1.1" xmlns="http://www.w3.org/2000/svg" xmlns:xlink="http://www.w3.org/1999/xlink">
    <title>like</title>
    <defs>
        <filter id="filter-1">
            <feColorMatrix in="SourceGraphic" type="matrix" values="0 0 0 0 1.000000 0 0 0 0 1.000000 0 0 0 0 1.000000 0 0 0 1.000000 0"></feColorMatrix>
        </filter>
    </defs>
    <g id="Page-1" stroke="none" stroke-width="1" fill="none" fill-rule="evenodd">
        <g id="like" transform="translate(-286.000000, -762.000000)" filter="url(#filter-1)">
            <g transform="translate(287.000000, 763.000000)">
                <path d="M14.5542915,0.000330954597 C17.4006255,0.000330954597 19.6750002,2.00624677 19.9669417,4.77104147 C19.9896355,4.89316372 20.0842568,5.53587755 19.7965463,6.5836798 C19.3819047,8.09581136 18.4241518,9.47059675 17.027525,10.5597683 L17.027525,10.5597683 L9.94015337,16 L2.97240475,10.5594374 C1.57577791,9.47059675 0.618024991,8.0954804 0.203383367,6.5836798 C-0.0843271471,5.53554659 0.0102942254,4.89283276 0.0333726089,4.77071052 C0.324929521,2.00591581 2.59968886,0 5.44563818,0 C7.31152549,0 8.97663086,0.860150998 9.94476905,2.28557245 C10.921754,0.878353501 12.6580177,0.000330954597 14.5542915,0.000330954597 Z M5.44563818,0.661909194 C3.00240665,0.661909194 1.0480522,2.42027097 0.798036383,4.84252767 L0.798036383,4.84252767 L0.792266787,4.87595408 C0.791882147,4.87959458 0.679951987,5.43990071 0.952276913,6.43177164 C1.33114704,7.81251422 2.20812562,9.07014169 3.48936054,10.0689627 L3.48936054,10.0689627 L9.049,14.41 L9.46,9.476 L9.61111111,9.63888889 C10.537037,10.6574074 11,11.4444444 11,12 C11,12.6058077 10.4494956,13.4868676 9.34848672,14.6431797 L9.94476905,15.1097321 L16.512877,10.0676388 C17.7918041,9.0708036 18.6691673,7.81284518 19.0476528,6.4321026 C19.2859371,5.56421553 19.2300261,5.02649188 19.2118098,4.90207428 L19.2072783,4.87429931 C18.9522621,2.42060192 16.9975231,0.662240149 14.5546762,0.662240149 C12.7091748,0.662240149 11.0382998,1.63855621 10.297099,3.14903299 L10.297099,3.14903299 L9.94284585,3.87150688 L9.93,3.846 L9.741,6.111 L9,5 L9.755,3.49 L9.58859266,3.14903299 C8.86821263,1.68175298 7.38487025,0.745889705 5.67951232,0.667283976 Z M9.522,8.739 L9.46,9.476 L9.41975309,9.43209877 C9.35390947,9.36213992 9.28600823,9.29115226 9.21604938,9.2191358 L9,9 L9.522,8.739 Z M9.741,6.111 L11,8 L9.522,8.739 L9.741,6.111 Z" id="Combined-Shape" stroke="#979797" fill="#000000" fill-rule="nonzero"></path>
            </g>
        </g>
    </g>
</svg>