<?xml version="1.0" encoding="UTF-8"?>
<svg width="21px" height="20px" viewBox="0 0 21 20" version="1.1" xmlns="http://www.w3.org/2000/svg" xmlns:xlink="http://www.w3.org/1999/xlink">
    <title>gift</title>
    <g id="Page-1" stroke="none" stroke-width="1" fill="none" fill-rule="evenodd">
        <g id="Widget_1" transform="translate(-160.000000, -299.000000)" fill="#FFDA57">
            <g id="Medium_widget_with_button" transform="translate(29.000000, 279.000000)">
                <path d="M149.535334,23.6153846 L148.156681,23.6153846 C148.233273,23.3076923 148.309865,23.0769231 148.309865,22.7692308 L148.309865,22.6923077 C148.309865,21.1538462 147.084395,20 145.629149,20 C144.863231,20 144.097312,20.3076923 143.637761,20.9230769 L141.569781,23.2307692 L139.5018,20.9230769 C138.965657,20.3846154 138.27633,20 137.510412,20 C135.978574,20 134.829697,21.2307692 134.829697,22.6923077 L134.829697,22.7692308 C134.829697,23.0769231 134.906288,23.3076923 134.98288,23.6153846 L133.604227,23.6153846 C132.91169,23.6091649 132.245717,23.8827158 131.756,24.3745503 C131.266283,24.8663848 130.99391,25.535238 131,26.2307692 L131,28.5384615 C131,29.0769231 131.459655,29.4615385 131.919206,29.4615385 L132.302165,29.4615385 L132.302165,39.0769231 C132.302165,39.6153846 132.761716,40 133.221267,40 L149.611926,40 C150.148069,40 150.531029,39.5384615 150.531029,39.0769231 L150.531029,29.4615385 L151.067172,29.4615385 C151.603315,29.4615385 151.986274,29 151.986274,28.5384615 L151.986274,26.2307692 C152.139458,24.7692308 150.99058,23.6153846 149.535334,23.6153846 L149.535334,23.6153846 Z M144.786639,22 C145.016414,21.7692308 145.24619,21.6153846 145.552557,21.6153846 C146.165292,21.6153846 146.624844,22.0769231 146.624844,22.6923077 L146.624844,22.7692308 C146.624844,23.3846154 146.165292,23.8461538 145.552557,23.8461538 L143.101618,23.8461538 L144.786639,22 Z M136.361534,22.6923077 C136.361534,22.0769231 136.821085,21.6153846 137.43382,21.6153846 C137.740187,21.6153846 138.046555,21.7692308 138.199739,22 L139.88476,23.8461538 L137.43382,23.8461538 C136.821085,23.8461538 136.361534,23.3846154 136.361534,22.7692308 L136.361534,22.6923077 Z M132.531941,27.7692308 L132.531941,26.1538462 C132.531941,25.6153846 132.991492,25.2307692 133.451043,25.2307692 L140.803862,25.2307692 L140.803862,27.7692308 L132.531941,27.7692308 L132.531941,27.7692308 Z M149.152375,38.3846154 L133.987186,38.3846154 L133.987186,29.2307692 L149.152375,29.2307692 L149.152375,38.3846154 Z M150.454437,27.7692308 L142.182515,27.7692308 L142.182515,25.2307692 L149.535334,25.2307692 C150.071477,25.2307692 150.454437,25.6923077 150.454437,26.1538462 L150.454437,27.7692308 Z" id="gift"></path>
            </g>
        </g>
    </g>
</svg>