<?xml version="1.0" encoding="UTF-8"?>
<svg width="53px" height="20px" viewBox="0 0 53 20" version="1.1" xmlns="http://www.w3.org/2000/svg" xmlns:xlink="http://www.w3.org/1999/xlink">
    <title>logo-white</title>
    <g id="Page-1" stroke="none" stroke-width="1" fill="none" fill-rule="evenodd">
        <g id="Widget_1" transform="translate(-48.000000, -299.000000)" fill="#FFFFFF" fill-rule="nonzero">
            <g id="Medium_widget_with_button" transform="translate(29.000000, 279.000000)">
                <g id="logo-white" transform="translate(19.000000, 20.000000)">
                    <path d="M0,7.04287327 L7.7804742,5.9484347 L7.7804742,9.07339648 L0,9.9303043 L0,7.04287327 Z M2.48256079,10.1058412 L5.33126923,9.81477709 L5.33126923,19.9999625 L2.48256079,19.9999625 L2.48256079,10.1058412 Z M8.83107098,5.80046931 L11.8325357,5.37819235 L11.8325357,19.9999064 L8.83107098,19.9999064 L8.83107098,5.80046931 Z M12.391807,5.29935235 L16.7260095,4.6897087 L16.7260095,8.08851412 L12.391807,8.56563467 L12.391807,5.29935235 Z M12.391807,10.9968156 L15.2371499,10.7519848 L15.2371499,14.1676364 L12.391807,14.3231826 L12.391807,10.9968156 Z M12.3917696,16.7201472 L16.7259721,16.5893087 L16.7259721,19.9999064 L12.3917696,19.9999064 L12.3917696,16.7201472 Z M27.9344881,3.10761139 L31.8691311,2.55393442 L31.8691311,20 L27.9344881,20 L27.9344881,3.10761139 Z M32.6043432,2.45053646 L38.3384066,1.6437928 L38.3384066,5.70465212 L32.6043432,6.33600861 L32.6043432,2.45053646 Z M32.6043432,9.25855448 L36.3628584,8.93604418 L36.3628584,13.0105676 L32.6043432,13.2160907 L32.6043432,9.25855448 Z M32.6042871,16.1086317 L38.3383505,15.9354907 L38.3383505,19.9999064 L32.6042871,19.9999064 L32.6042871,16.1086317 Z M17.8726539,4.52824766 L21.2916276,4.04719634 L21.2916276,19.9999438 L17.8726539,19.9999438 L17.8726539,4.52824766 Z M21.9297637,16.4320779 L26.8929408,16.2821471 L26.8929408,19.9999064 L21.9297637,19.9999064 L21.9297637,16.4320779 Z M51.1938299,1.45258894 C52.3306208,2.52849672 52.9040646,4.05232505 52.7670139,5.6336175 C52.5076835,8.62249982 51.0588359,11.0172744 47.0249107,14.9628311 L40.4229223,15.1797722 C40.4229223,15.1797722 45.0216905,10.9981821 46.7513703,8.95511776 C47.8720817,7.63119715 48.3468042,6.20208164 47.8864786,5.24952516 C47.594802,4.64587126 46.9398383,4.34544816 46.1328663,4.39037124 L46.1328663,0.0807503613 C48.1272988,-0.206195817 49.9510256,0.276352942 51.1938299,1.45258894 Z M53,19.9999252 L39.6084901,19.9999252 L39.6084901,15.8236531 L53,15.4901532 L53,19.9999252 Z M45.3630083,0.177503447 L45.365439,4.56667561 C44.5489313,4.9110859 43.7419593,5.5375757 43.9309882,8.17886564 L39.78301,8.54723491 C39.5625697,3.87205248 41.4728647,1.00652147 45.3630083,0.177503447 Z" id="path-1"></path>
                </g>
            </g>
        </g>
    </g>
</svg>