<?xml version="1.0" encoding="UTF-8"?>
<svg width="22px" height="18px" viewBox="0 0 22 18" version="1.1" xmlns="http://www.w3.org/2000/svg" xmlns:xlink="http://www.w3.org/1999/xlink">
    <title>like</title>
    <defs>
        <filter id="filter-1">
            <feColorMatrix in="SourceGraphic" type="matrix" values="0 0 0 0 1.000000 0 0 0 0 1.000000 0 0 0 0 1.000000 0 0 0 1.000000 0"></feColorMatrix>
        </filter>
    </defs>
    <g id="Page-1" stroke="none" stroke-width="1" fill="none" fill-rule="evenodd">
        <g id="like" transform="translate(-286.000000, -762.000000)" filter="url(#filter-1)">
            <g transform="translate(287.000000, 763.000000)">
                <path d="M19.9669417,4.77104147 C19.6750002,2.00624677 17.4006255,0.000330954597 14.5542915,0.000330954597 C12.6580177,0.000330954597 10.921754,0.878353501 9.94476905,2.28557245 C8.97663086,0.860150998 7.31152549,0 5.44563818,0 C2.59968886,0 0.324929521,2.00591581 0.0333726089,4.77071052 C0.0102942254,4.89283276 -0.0843271471,5.53554659 0.203383367,6.5836798 C0.618024991,8.0954804 1.57577791,9.47059675 2.97240475,10.5594374 L9.94015337,16 L17.027525,10.5597683 C18.4241518,9.47059675 19.3819047,8.09581136 19.7965463,6.5836798 C20.0842568,5.53587755 19.9896355,4.89316372 19.9669417,4.77104147 Z M19.0476528,6.4321026 C18.6691673,7.81284518 17.7918041,9.0708036 16.512877,10.0676388 L9.94476905,15.1097321 L3.48936054,10.0689627 C2.20812562,9.07014169 1.33114704,7.81251422 0.952276913,6.43177164 C0.679951987,5.43990071 0.791882147,4.87959458 0.792266787,4.87595408 L0.798036383,4.84252767 C1.0480522,2.42027097 3.00240665,0.661909194 5.44563818,0.661909194 C7.24844458,0.661909194 8.83546808,1.61505843 9.58859266,3.14903299 L9.94284585,3.87150688 L10.297099,3.14903299 C11.0382998,1.63855621 12.7091748,0.662240149 14.5546762,0.662240149 C16.9975231,0.662240149 18.9522621,2.42060192 19.2072783,4.87429931 C19.2080476,4.87959458 19.3199777,5.44023167 19.0476528,6.4321026 Z" id="Shape" stroke="#979797" fill="#000000" fill-rule="nonzero"></path>
            </g>
        </g>
    </g>
</svg>